<?xml version="1.0" encoding="UTF-8" standalone="no"?><!DOCTYPE svg PUBLIC "-//W3C//DTD SVG 1.1//EN" "http://www.w3.org/Graphics/SVG/1.1/DTD/svg11.dtd"><svg width="100%" height="100%" viewBox="0 0 1440 980" version="1.1" xmlns="http://www.w3.org/2000/svg" xmlns:xlink="http://www.w3.org/1999/xlink" xml:space="preserve" style="fill-rule:evenodd;clip-rule:evenodd;stroke-linejoin:round;stroke-miterlimit:1.41421;"><path d="M1436.91,944c-5.852,-3.501 -13.855,-8.799 -22.196,-13.669c-9.247,-5.404 -18.916,-10.28 -26.486,-11.575c-14.4,-2.463 -37.203,-16.009 -39.518,-17.395c-2.314,-1.386 -13.371,-8.312 -15.943,-9.698c-2.571,-1.385 -14.914,-11.082 -19.028,-14.315c-4.114,-3.232 -13.114,-12.006 -17.229,-15.239c-4.114,-3.232 -11.057,-7.851 -15.171,-11.545c-4.114,-3.695 -10.543,-11.082 -16.714,-15.008c-6.172,-3.925 -13.886,-9.467 -15.943,-10.853c-2.057,-1.384 -10.543,-8.311 -18.515,-8.542c-7.971,-0.23 -12.6,0.231 -14.657,0c-2.057,-0.23 -2.571,-3.233 -4.371,-5.542c-1.8,-2.309 -5.914,-3.231 -10.286,-5.079c-4.371,-1.848 -9.257,-0.232 -14.143,-0.693c-4.885,-0.461 -8.743,0 -12.857,-0.231c-4.114,-0.23 -2.571,-1.616 -6.171,-2.54c-3.6,-0.923 -8.486,-1.846 -12.343,-3.002c-3.857,-1.154 -14.4,-1.385 -21.857,-1.847c-7.457,-0.462 -12.857,1.847 -16.972,3.003c-4.114,1.155 -8.743,3.462 -14.657,5.078c-5.914,1.617 -12.086,6.928 -18.257,9.237c-6.171,2.309 -9.257,2.078 -16.971,2.539c-7.715,0.462 -7.2,4.387 -10.286,5.542c-3.086,1.155 -7.457,-0.23 -11.829,-0.462c-4.371,-0.23 -13.114,2.309 -20.057,4.849c-6.943,2.54 -5.143,1.386 -13.114,1.386c-7.972,0 -10.543,-2.772 -15.172,-4.849c-4.628,-2.079 -5.4,-4.85 -12.342,-4.85c-6.943,0 -5.658,-1.616 -10.8,-3.462c-5.143,-1.847 -16.972,-7.85 -21.6,-10.622c-4.629,-2.77 -9.258,-2.77 -14.915,-4.156c-5.657,-1.386 -18.514,0.693 -24.171,0.693c-5.657,0 -12.086,3.694 -16.2,5.541c-4.114,1.848 -8.743,1.155 -10.286,2.31c-1.543,1.153 -7.971,2.077 -11.057,2.077c-3.086,0 -4.886,2.078 -7.457,2.54c-2.572,0.462 -6.943,2.078 -9.772,1.847c-2.828,-0.23 -6.685,-2.309 -10.028,-3.232c-3.343,-0.924 -6.429,-3.232 -8.486,-3.926c-2.057,-0.692 -6.171,-4.387 -11.314,-5.541c-5.143,-1.154 -4.114,-4.156 -10.543,-6.466c-6.429,-2.307 -10.286,-3.693 -11.829,-4.617c-1.542,-0.924 -5.657,-3.002 -6.942,-3.694c-1.286,-0.693 -2.829,-2.54 -4.886,-3.463c-2.057,-0.924 -4.886,-1.618 -6.943,-3.003c-2.057,-1.384 -5.143,-2.308 -9.514,-3.001c-4.372,-0.692 -7.972,-2.539 -11.572,-4.157c-3.6,-1.615 -10.8,-3.231 -12.343,-4.386c-1.542,-1.154 -9.771,-5.311 -11.057,-6.234c-1.285,-0.924 -15.171,-4.387 -20.057,-4.849c-4.886,-0.461 -7.971,-3.926 -9.257,-4.618c-1.286,-0.692 -1.029,-3.001 -3.086,-3.001c-2.057,0 -3.343,-2.54 -5.914,-3.464c-2.571,-0.924 -5.914,-3.002 -8.229,-3.463c-2.314,-0.462 -6.428,-0.923 -9,0.692c-2.571,1.616 -12.857,3.463 -19.028,9.005c-6.172,5.542 -16.2,6.464 -20.057,7.619c-3.857,1.155 -9.257,2.772 -12.857,4.388c-3.6,1.615 -8.229,2.078 -13.886,5.773c-5.657,3.693 -11.572,3.924 -14.914,5.078c-3.343,1.155 -9.515,6.465 -13.372,8.083c-3.857,1.616 -12.086,6.464 -15.428,8.543c-3.343,2.077 -7.972,3.001 -14.143,3.924c-6.172,0.925 -11.315,0.693 -17.486,0.462c-6.171,-0.231 -11.829,-2.539 -16.714,-3.463c-4.886,-0.923 -10.8,-3.925 -13.886,-4.157c-3.086,-0.231 -12.857,0.924 -15.429,0.924c-2.571,0 -4.371,-3.232 -8.228,-4.156c-3.857,-0.923 -10.286,-4.387 -15.943,-5.079c-5.657,-0.694 -10.286,0.23 -13.114,0.23c-2.829,0 -6.943,-0.693 -9.772,-0.924c-2.828,-0.23 -8.743,-3.693 -11.314,-4.848c-2.571,-1.155 -5.4,-3.463 -13.114,-4.387c-7.715,-0.923 -11.315,-5.08 -15.943,-6.926c-4.629,-1.848 -12.343,-8.775 -15.429,-10.161c-3.085,-1.384 -13.371,-6.465 -19.028,-9.235c-5.657,-2.771 -14.4,-5.541 -22.629,-7.389c-8.228,-1.847 -12.857,-0.923 -21.6,-0.462c-8.743,0.462 -18,3.695 -24.686,5.08c-6.685,1.386 -14.914,7.851 -20.571,11.083c-5.657,3.233 -11.314,6.464 -16.457,8.774c-5.143,2.31 -12.343,7.389 -16.457,7.389c-4.115,0 -8.229,-1.385 -14.4,-1.385c-6.172,0 -11.829,-2.771 -15.429,-3.232c-3.6,-0.462 -5.143,-3.696 -13.886,-4.157c-8.742,-0.462 -10.285,-0.925 -13.371,-2.771c-3.086,-1.847 -6.171,-5.542 -13.371,-8.774c-7.2,-3.233 -14.4,-4.618 -17.486,-6.927c-3.086,-2.309 -8.743,-5.541 -11.829,-6.003c-3.085,-0.462 -4.114,-4.156 -10.285,-5.542c-6.172,-1.385 -12.858,-3.231 -21.6,-5.079c-8.743,-1.848 -13.886,-0.924 -19.543,-0.462c-5.657,0.462 -10.286,0.462 -12.857,-3.694c-2.572,-4.156 -9.258,-6.466 -13.372,-7.851c-4.114,-1.385 -7.714,-3.694 -9.257,-6.465c-1.543,-2.771 -8.743,-3.232 -12.343,-4.157c-3.6,-0.922 -7.2,-2.308 -10.286,-4.617c-3.085,-2.308 -10.8,-3.694 -15.428,-3.694c-4.629,0 -30.343,-3.233 -30.343,-3.233l0,391.458l1440,0l0,-137.833c-1.08,-0.61 -2.109,-1.211 -3.086,-1.795Z" style="fill:#1b1949;fill-rule:nonzero;"/></svg>