<?xml version="1.0" encoding="UTF-8" standalone="no"?><!DOCTYPE svg PUBLIC "-//W3C//DTD SVG 1.1//EN" "http://www.w3.org/Graphics/SVG/1.1/DTD/svg11.dtd"><svg width="100%" height="100%" viewBox="0 0 1440 980" version="1.1" xmlns="http://www.w3.org/2000/svg" xmlns:xlink="http://www.w3.org/1999/xlink" xml:space="preserve" style="fill-rule:evenodd;clip-rule:evenodd;stroke-linejoin:round;stroke-miterlimit:1.41421;"><path d="M1394.23,598.309c-3.086,2.5 -6.686,4 -10.286,5c-3.6,1 -10.8,1.5 -12.343,4.5c-1.543,3 -5.143,5.5 -9.257,7c-4.114,1.5 -10.8,4 -13.372,8.5c-2.571,4.5 -7.2,4.5 -12.857,4c-5.657,-0.5 -10.8,-1.5 -19.543,0.5c-8.742,2 -15.428,4 -21.6,5.5c-6.171,1.5 -7.2,5.5 -10.285,6c-3.086,0.5 -8.743,4 -11.829,6.5c-3.086,2.5 -10.286,4 -17.486,7.5c-7.2,3.5 -10.285,7.5 -13.371,9.5c-3.086,2 -4.629,2.5 -13.371,3c-8.743,0.5 -10.286,4 -13.886,4.5c-3.6,0.5 -9.257,3.5 -15.429,3.5c-6.171,0 -10.285,1.5 -14.4,1.5c-4.114,0 -11.314,-5.5 -16.457,-8c-5.143,-2.5 -10.8,-6 -16.457,-9.5c-5.657,-3.5 -13.886,-10.5 -20.571,-12c-6.686,-1.5 -15.943,-5 -24.686,-5.5c-8.743,-0.5 -13.372,-1.5 -21.6,0.5c-8.229,2 -16.972,5 -22.629,8c-5.657,3 -15.943,8.5 -19.028,10c-3.086,1.5 -10.8,9 -15.429,11c-4.628,2 -8.228,6.5 -15.943,7.5c-7.714,1 -10.543,3.5 -13.114,4.75c-2.571,1.25 -8.486,5 -11.314,5.25c-2.829,0.25 -6.943,1 -9.772,1c-2.828,0 -7.457,-1 -13.114,-0.25c-5.657,0.75 -12.086,4.5 -15.943,5.5c-3.857,1 -5.657,4.5 -8.228,4.5c-2.572,0 -12.343,-1.25 -15.429,-1c-3.086,0.25 -9,3.5 -13.886,4.5c-4.885,1 -10.543,3.5 -16.714,3.75c-6.171,0.25 -11.314,0.5 -17.486,-0.5c-6.171,-1 -10.8,-2 -14.143,-4.25c-3.342,-2.25 -11.571,-7.5 -15.428,-9.25c-3.857,-1.75 -10.029,-7.5 -13.372,-8.75c-3.342,-1.25 -9.257,-1.5 -14.914,-5.5c-5.657,-4 -10.286,-4.5 -13.886,-6.25c-3.6,-1.75 -9,-3.5 -12.857,-4.75c-3.857,-1.25 -13.885,-2.25 -20.057,-8.25c-6.171,-6 -16.457,-8 -19.028,-9.75c-2.572,-1.75 -6.686,-1.25 -9,-0.75c-2.315,0.5 -5.658,2.75 -8.229,3.75c-2.571,1 -3.857,3.75 -5.914,3.75c-2.057,0 -1.8,2.5 -3.086,3.25c-1.286,0.75 -4.371,4.5 -9.257,5c-4.886,0.5 -18.772,4.25 -20.057,5.25c-1.286,1 -9.515,5.5 -11.057,6.75c-1.543,1.25 -8.743,3 -12.343,4.75c-3.6,1.75 -7.2,3.75 -11.572,4.5c-4.371,0.75 -7.457,1.75 -9.514,3.25c-2.057,1.5 -4.886,2.25 -6.943,3.25c-2.057,1 -3.6,3 -4.886,3.75c-1.285,0.75 -5.4,3 -6.942,4c-1.543,1 -5.4,2.5 -11.829,5c-6.429,2.5 -5.4,5.75 -10.543,7c-5.143,1.25 -9.257,5.25 -11.314,6c-2.057,0.75 -5.143,3.25 -8.486,4.25c-3.343,1 -7.2,3.25 -10.028,3.5c-2.829,0.25 -7.2,-1.5 -9.772,-2c-2.571,-0.5 -4.371,-2.75 -7.457,-2.75c-3.086,0 -9.514,-1 -11.057,-2.25c-1.543,-1.25 -6.172,-0.5 -10.286,-2.5c-4.114,-2 -10.543,-6 -16.2,-6c-5.657,0 -18.514,-2.25 -24.171,-0.75c-5.657,1.5 -10.286,1.5 -14.915,4.5c-4.628,3 -16.457,9.5 -21.6,11.5c-5.142,2 -3.857,3.75 -10.8,3.75c-6.942,0 -7.714,3 -12.342,5.25c-4.629,2.25 -7.2,5.25 -15.172,5.25c-7.971,0 -6.171,1.25 -13.114,-1.5c-6.943,-2.75 -15.686,-5.5 -20.057,-5.25c-4.372,0.25 -8.743,1.75 -11.829,0.5c-3.086,-1.25 -2.571,-5.5 -10.286,-6c-7.714,-0.5 -10.8,-0.25 -16.971,-2.75c-6.171,-2.5 -12.343,-8.25 -18.257,-10c-5.914,-1.75 -10.543,-4.25 -14.657,-5.5c-4.115,-1.25 -9.515,-3.75 -16.972,-3.25c-7.457,0.5 -18,0.75 -21.857,2c-3.857,1.25 -8.743,2.25 -12.343,3.25c-3.6,1 -2.057,2.5 -6.171,2.75c-1.764,0.107 -3.48,0.076 -5.25,0.046c-2.36,-0.041 -4.816,-0.082 -7.607,0.204c-1.833,0.187 -3.665,0.058 -5.47,-0.071c-3.009,-0.214 -5.941,-0.429 -8.673,0.821c-4.372,2 -8.486,3 -10.286,5.5c-1.8,2.5 -2.314,5.75 -4.371,6c-1.029,0.125 -2.7,0.062 -5.111,0c-2.411,-0.063 -5.561,-0.125 -9.546,0c-7.972,0.25 -16.458,7.75 -18.515,9.25c-2.057,1.5 -9.771,7.5 -15.943,11.75c-6.171,4.25 -12.6,12.25 -16.714,16.25c-4.114,4 -11.057,9 -15.171,12.5c-4.115,3.5 -13.115,13 -17.229,16.5c-4.114,3.5 -16.457,14 -19.028,15.5c-2.572,1.5 -13.63,9 -15.944,10.5c-2.314,1.5 -25.115,16.168 -39.514,18.834c-14.4,2.666 -36.342,19.334 -48.685,27.334c-0.975,0.631 -2.011,1.281 -3.086,1.942l0,149.238l1440,0l0,-423.848c0,0 -25.714,3.5 -30.343,3.5c-4.628,0 -12.343,1.5 -15.428,4Z" style="fill:#51589f;fill-rule:nonzero;"/></svg>