<?xml version="1.0" encoding="UTF-8" standalone="no"?><!DOCTYPE svg PUBLIC "-//W3C//DTD SVG 1.1//EN" "http://www.w3.org/Graphics/SVG/1.1/DTD/svg11.dtd"><svg width="100%" height="100%" viewBox="0 0 1440 980" version="1.1" xmlns="http://www.w3.org/2000/svg" xmlns:xlink="http://www.w3.org/1999/xlink" xml:space="preserve" style="fill-rule:evenodd;clip-rule:evenodd;stroke-linejoin:round;stroke-miterlimit:1.41421;"><path d="M0,822.731l9.168,-7.478l11.133,-3.022l12.828,-5.437l6.838,6.043l4.275,3.627l6.847,4.835l6.848,4.234l10.263,5.433l67.569,10.273l9.412,1.211l10.266,-4.84l5.985,-4.827l6.847,0l7.697,-3.625l8.56,-3.026l11.968,-3.627l9.412,-4.227l4.277,3.625l10.259,0.602l5.997,0l5.984,1.817l10.255,-2.419l9.42,-2.416l6.844,0l13.674,1.812l12.841,-3.626l5.984,-5.442l12.842,-5.437l15.389,-2.424l8.555,-2.408l10.258,-3.627l16.251,0l5.996,0.607l7.697,1.207l11.972,-0.613l10.26,-2.412l5.986,-3.623l9.422,-1.211l5.98,-2.422l7.699,-1.811l6.84,1.811l5.982,2.422l5.147,6.652l8.548,5.428l4.282,5.444l9.409,9.673l70.996,-9.673l3.421,-7.251l5.984,-0.601l8.547,-2.426l7.706,-4.226l12.832,-2.417l8.558,-1.21l22.236,0l9.417,-3.018l11.115,4.836l9.409,0l5.975,1.203l9.417,0l18.817,-4.836l9.413,-4.834l6.841,-4.846l6.841,-6.644l5.992,-3.627l5.999,-1.814l8.54,-0.602l9.416,-1.207l6.84,-3.019l11.122,-3.632l6.834,0.594l5.139,2.43l6.837,-0.617l7.701,-2.407l5.994,3.024l2.561,2.416l5.99,3.02l12.823,0c9.42,-2.411 21.396,-15.116 21.396,-15.116l17.951,-11.484l15.4,-7.252l14.546,-7.86l11.117,-6.642l8.553,-8.467l10.268,-7.25l11.117,-7.855l5.993,-9.067l8.555,-6.651l10.264,-3.023l13.683,-6.654l4.281,3.035l6.836,0.604l5.993,3.015l4.271,4.84l4.285,1.809l3.421,4.228l6.839,5.442l2.564,3.632l6.849,4.83l4.274,1.815l7.691,0l5.998,-2.417l5.127,-0.608l6.844,0l7.701,3.025l3.422,3.619l7.695,4.238l5.996,4.835l3.415,4.228l6.85,1.206l6.84,0.608l5.976,1.818l6.851,5.434l5.986,4.835l9.411,8.461l24.799,13.912c59.894,17.529 93.25,-15.723 93.25,-15.723l5.987,-3.024l11.108,-3.019l6.851,-0.607l6.84,1.817l18.822,3.018l10.266,-5.437l6.84,-3.025l5.132,0.609l4.269,3.625l5.996,1.808l7.704,3.627l8.558,4.836c0,0 9.401,3.624 12.816,5.446c3.425,1.81 5.986,3.632 5.986,3.632l5.143,3.624l10.255,3.021l6.85,3.629l3.425,4.228l4.269,4.834l5.997,2.416l6.829,4.848l8.558,4.231l2.571,4.842l1.708,6.642l5.143,1.818l5.986,4.225l5.122,5.438l5.133,6.042l4.289,4.84l4.269,6.046l5.986,4.831l4.289,1.817l5.976,4.828l4.279,4.23l5.986,1.813l5.986,3.632l3.189,1.407l0,235.537l-1440,0l0,-260.897Z" style="fill:#282561;fill-rule:nonzero;"/></svg>