<?xml version="1.0" encoding="UTF-8" standalone="no"?><!DOCTYPE svg PUBLIC "-//W3C//DTD SVG 1.1//EN" "http://www.w3.org/Graphics/SVG/1.1/DTD/svg11.dtd"><svg width="100%" height="100%" viewBox="0 0 1440 980" version="1.1" xmlns="http://www.w3.org/2000/svg" xmlns:xlink="http://www.w3.org/1999/xlink" xml:space="preserve" style="fill-rule:evenodd;clip-rule:evenodd;stroke-linejoin:round;stroke-miterlimit:1.41421;"><path d="M43.77,817.31c3.086,2.66 6.687,4.256 10.287,5.318c3.6,1.065 10.799,1.596 12.342,4.787c1.543,3.192 5.144,5.851 9.258,7.446c4.114,1.596 10.8,4.256 13.371,9.042c2.571,4.787 7.201,4.787 12.858,4.254c5.657,-0.531 10.8,-1.595 19.543,0.533c8.742,2.128 15.428,4.255 21.6,5.85c6.171,1.596 7.2,5.85 10.285,6.382c3.086,0.533 8.743,4.255 11.829,6.914c3.086,2.659 10.286,4.255 17.486,7.978c7.2,3.723 10.285,7.978 13.371,10.105c3.086,2.127 4.629,2.66 13.371,3.192c8.743,0.531 10.286,4.255 13.886,4.787c3.6,0.531 9.257,3.722 15.429,3.722c6.171,0 10.285,1.596 14.4,1.596c4.114,0 11.314,-5.85 16.457,-8.51c5.143,-2.66 10.8,-6.382 16.457,-10.105c5.657,-3.723 13.886,-11.169 20.571,-12.765c6.686,-1.595 15.943,-5.318 24.686,-5.85c8.743,-0.531 13.372,-1.596 21.6,0.532c8.229,2.128 16.972,5.318 22.629,8.51c5.657,3.19 15.943,9.042 19.028,10.636c3.086,1.596 10.8,9.574 15.429,11.702c4.628,2.126 8.228,6.913 15.943,7.977c7.714,1.065 10.543,3.723 13.114,5.053c2.571,1.33 8.486,5.318 11.314,5.584c2.829,0.266 6.943,1.064 9.772,1.064c2.828,0 7.457,-1.064 13.114,-0.265c5.657,0.797 12.086,4.786 15.943,5.849c3.857,1.065 5.657,4.787 8.228,4.787c2.572,0 12.343,-1.33 15.429,-1.064c3.086,0.266 9,3.723 13.886,4.787c4.885,1.065 10.543,3.723 16.714,3.989c6.171,0.266 11.314,0.533 17.486,-0.532c6.171,-1.063 10.8,-2.127 14.143,-4.521c3.342,-2.393 11.571,-7.977 15.428,-9.838c3.857,-1.862 10.029,-7.979 13.372,-9.309c3.342,-1.329 9.257,-1.595 14.914,-5.849c5.657,-4.255 10.286,-4.788 13.886,-6.649c3.6,-1.861 9,-3.723 12.857,-5.053c3.857,-1.33 13.885,-2.392 20.057,-8.775c6.171,-6.383 16.457,-8.51 19.028,-10.371c2.572,-1.862 6.686,-1.33 9,-0.798c2.315,0.532 5.658,2.925 8.229,3.989c2.571,1.064 3.857,3.989 5.914,3.989c2.057,0 1.8,2.66 3.086,3.457c1.286,0.797 4.371,4.787 9.257,5.318c4.886,0.532 18.772,4.521 20.057,5.585c1.286,1.063 9.515,5.85 11.057,7.179c1.543,1.33 8.743,3.192 12.343,5.053c3.6,1.863 7.2,3.99 11.572,4.787c4.371,0.798 7.457,1.862 9.514,3.457c2.057,1.595 4.886,2.394 6.943,3.458c2.057,1.063 3.6,3.19 4.886,3.989c1.285,0.797 5.4,3.19 6.942,4.254c1.543,1.064 5.4,2.66 11.829,5.318c6.429,2.66 5.4,6.117 10.543,7.446c5.143,1.33 9.257,5.585 11.314,6.382c2.057,0.799 5.143,3.458 8.486,4.522c3.343,1.063 7.2,3.457 10.028,3.722c2.829,0.266 7.2,-1.596 9.772,-2.127c2.571,-0.532 4.371,-2.925 7.457,-2.925c3.086,0 9.514,-1.064 11.057,-2.393c1.543,-1.33 6.172,-0.532 10.286,-2.66c4.114,-2.127 10.543,-6.382 16.2,-6.382c5.657,0 18.514,-2.394 24.171,-0.798c5.657,1.596 10.286,1.596 14.915,4.787c4.628,3.192 16.457,10.106 21.6,12.233c5.142,2.127 3.857,3.988 10.8,3.988c6.942,0 7.714,3.191 12.342,5.585c4.629,2.393 7.2,5.585 15.172,5.585c7.971,0 6.171,1.329 13.114,-1.596c6.943,-2.926 15.686,-5.85 20.057,-5.585c4.372,0.267 8.743,1.862 11.829,0.532c3.086,-1.33 2.571,-5.85 10.286,-6.382c7.714,-0.532 10.8,-0.266 16.971,-2.925c6.171,-2.659 12.343,-8.775 18.257,-10.638c5.914,-1.861 10.543,-4.52 14.657,-5.85c4.115,-1.33 9.515,-3.989 16.972,-3.456c7.457,0.531 18,0.797 21.857,2.126c3.857,1.33 8.743,2.394 12.343,3.457c3.6,1.065 2.057,2.661 6.171,2.926c1.759,0.114 3.477,0.081 5.246,0.049c2.366,-0.044 4.824,-0.087 7.611,0.217c1.831,0.199 3.662,0.062 5.472,-0.075c3.004,-0.229 5.935,-0.458 8.671,0.873c4.372,2.128 8.486,3.19 10.286,5.85c1.8,2.659 2.314,6.116 4.371,6.382c1.029,0.133 2.705,0.067 5.112,0c2.417,-0.066 5.565,-0.133 9.545,0c7.972,0.267 16.458,8.244 18.515,9.839c2.057,1.596 9.771,7.979 15.943,12.499c6.171,4.522 12.6,13.03 16.714,17.285c4.114,4.255 11.057,9.574 15.171,13.297c4.115,3.723 13.115,13.828 17.229,17.551c4.114,3.722 16.457,14.892 19.028,16.487c2.572,1.596 13.629,9.573 15.943,11.169c2.315,1.596 25.118,17.198 39.518,20.034c7.57,1.492 17.239,7.108 26.486,13.332l25.282,0l0,-311.435l-10.481,-8.926l-12.724,-3.608l-14.657,-6.49l-7.817,7.213l-4.886,4.33l-7.827,5.771l-7.817,5.054l-11.736,6.486l-77.215,12.264l-10.759,1.445l-11.736,-5.778l-6.84,-5.763l-7.827,0l-8.795,-4.328l-9.781,-3.612l-13.68,-4.33l-10.759,-5.043l-4.886,4.326l-11.726,0.717l-6.85,0l-6.84,2.17l-11.715,-2.887l-10.769,-2.884l-7.818,0l-15.634,2.163l-14.678,-4.329l-6.829,-6.495l-14.678,-6.49l-17.589,-2.894l-9.781,-2.875l-11.716,-4.328l-8.804,0l-9.772,0l-6.852,0.723l-8.8,1.443l-13.68,-0.735l-11.726,-2.877l-6.841,-4.326l-10.767,-1.446l-6.837,-2.89l-8.797,-2.163l-7.819,2.163l-6.837,2.89l-5.881,7.941l-9.767,6.48l-4.896,6.499l-10.752,11.546l-81.139,-11.546l-3.91,-8.655l-6.84,-0.719l-9.767,-2.897l-8.807,-5.043l-14.666,-2.884l-9.778,-1.446l-12.697,0l-12.716,0l-10.764,-3.601l-12.701,5.771l-10.754,0l-6.829,1.436l-10.763,0l-21.505,-5.772l-10.757,-5.771l-7.818,-5.783l-7.817,-7.932l-6.849,-4.33l-6.856,-2.166l-9.76,-0.718l-10.761,-1.441l-7.818,-3.603l-12.709,-4.336l-7.811,0.709l-5.874,2.899l-7.813,-0.735l-8.803,-2.873l-6.849,3.608l-2.926,2.885l-6.847,3.605l-14.655,0c-10.766,-2.877 -24.452,-18.044 -24.452,-18.044l-20.516,-13.71l-17.6,-8.655l-16.623,-9.382l-12.705,-7.929l-9.775,-10.106l-11.736,-8.657l-12.704,-9.377l-6.85,-10.821l-9.776,-7.94l-11.729,-3.61l-15.64,-7.942l-4.892,3.623l-7.814,0.721l-6.849,3.598l-4.879,5.778l-4.897,2.161l-3.91,5.048l-7.817,6.495l-2.931,4.335l-7.827,5.765l-4.884,2.166l-8.789,0l-6.855,-2.884l-5.86,-0.727l-7.822,0l-8.801,3.611l-3.91,4.321l-8.798,5.058l-6.847,5.773l-3.903,5.048l-7.826,1.439l-7.825,0.727l-6.832,2.168l-7.825,6.486l-6.843,5.772l-10.757,10.101l-28.342,16.605c-68.446,20.926 -106.571,-18.769 -106.571,-18.769l-6.835,-3.607l-12.704,-3.606l-7.819,-0.724l-7.822,2.169l-21.506,3.604l-10.069,-5.568l0,141.837c0,0 25.714,3.723 30.342,3.723c4.629,0 12.344,1.596 15.428,4.254Z" style="fill:#383b83;fill-rule:nonzero;"/></svg>